<svg width="30" height="30" viewBox="0 0 30 30" fill="none" xmlns="http://www.w3.org/2000/svg">
<path d="M19 5.60905V4C19 2.34315 17.6569 1 16 1H4C2.34315 1 1 2.34315 1 4V26C1 27.6569 2.34315 29 4 29H16C17.6569 29 19 27.6569 19 26V22.4321" stroke="white" stroke-width="2"/>
<path d="M5 1H14C14 2.10457 13.1046 3 12 3H7C5.89543 3 5 2.10457 5 1Z" fill="white"/>
<path d="M19.4565 8.08288C19.1459 8.02841 18.8263 8 18.5 8C15.4624 8 13 10.4624 13 13.5C13 16.5376 15.4624 19 18.5 19C21.5376 19 24 16.5376 24 13.5C24 13.0467 23.9452 12.6062 23.8418 12.1848" stroke="white" stroke-width="2"/>
<path d="M22.1111 6.27013V8.40071C22.1111 8.67228 22.0007 8.93216 21.8052 9.12064L18.6293 12.1823C18.2841 12.5151 18.2803 13.0667 18.6209 13.4042C18.9539 13.7341 19.4905 13.7341 19.8235 13.4042L23.1521 10.1062C23.3394 9.92061 23.5923 9.81651 23.856 9.81651H25.9218C26.1854 9.81651 26.4384 9.71242 26.6257 9.52687L29.3686 6.80912C29.7164 6.46453 29.7164 5.90244 29.3686 5.55785C29.2036 5.39443 28.9809 5.30275 28.7487 5.30275H27.6667C27.1144 5.30275 26.6667 4.85504 26.6667 4.30275V2.93849C26.6667 2.76062 26.5956 2.59012 26.4692 2.46492C26.2094 2.20746 25.7906 2.20746 25.5308 2.46492L22.4073 5.55977C22.2177 5.74756 22.1111 6.00331 22.1111 6.27013Z" fill="white"/>
</svg>
