<svg xmlns="http://www.w3.org/2000/svg" xmlns:xlink="http://www.w3.org/1999/xlink" viewBox="0 0 329.53 285.14"><defs><style>.cls-1{fill:url(#Dégradé_sans_nom);}.cls-2{fill:#fff;}.cls-3,.cls-4{fill:none;stroke:#fff;}</style><linearGradient id="Dégradé_sans_nom" x1="128.76" y1="333.74" x2="203.76" y2="333.74" gradientTransform="matrix(1, 0, 0, -1, 0, 407.74)" gradientUnits="userSpaceOnUse"><stop offset="0" stop-color="#a4b9be"/><stop offset="0.48" stop-color="#f4cb45"/><stop offset="1" stop-color="#f77381"/></linearGradient></defs><title>Fichier 1</title><g id="Calque_2" data-name="Calque 2"><g id="Calque_1-2" data-name="Calque 1"><path class="cls-1" d="M167.26,10l.07,8A56.47,56.47,0,0,0,223.8,74h7.46l-8.19.11a56.46,56.46,0,0,0-55.74,56l-.07,7.92v-7.43a56.46,56.46,0,0,0-55.75-56.46L103.26,74h7.53a56.47,56.47,0,0,0,56.47-56.47Z"/><path class="cls-2" d="M81.26,0l0,2.75A19.42,19.42,0,0,0,100.7,22h2.56l-2.82,0A19.41,19.41,0,0,0,81.28,41.28l0,2.72V41.45A19.4,19.4,0,0,0,62.1,22l-2.84,0h2.59A19.41,19.41,0,0,0,81.26,2.59Z"/><path class="cls-3" d="M329.26,225.93l-40.37-26.37a120,120,0,0,1-31.41-29.88l-18.41-25.31m0,0-12.55,7.45m12.55-7.45,2.17-6.71a39.85,39.85,0,0,0,1.92-13.58l-.56-17.75,1.34-23.77a5.78,5.78,0,0,0-3.53-5.66h0A5.79,5.79,0,0,0,232.5,81l-4,18.65h0a2.32,2.32,0,0,1-4.2,1l-5.1-7.22a9.85,9.85,0,0,1-1.35-2.74l-6.21-20.28a23.3,23.3,0,0,1-1-5.23l-.32-4.66a4.34,4.34,0,0,0-4.33-4h0a4.35,4.35,0,0,0-4.34,4.18L201,78.1M285,262,249,232.13a120,120,0,0,1-28.83-35.22l-18-33.33-4.63-3.42a46.68,46.68,0,0,1-7.91-7.41h0a46.51,46.51,0,0,1-9.65-19l-3.69-15.22-8.61-31.58a3.89,3.89,0,0,1,1.85-4.42h0a3.89,3.89,0,0,1,5.42,1.7l3.3,6.85M201,78.1l2,12.15,4.32,10.59M201,78.1l-5.86-20.85a4.85,4.85,0,0,0-5.54-3.46h0a4.86,4.86,0,0,0-4,5.12l1.27,18m0,0L189.27,91l5.49,15.29m-7.84-29.41-5.24-11.58a4.79,4.79,0,0,0-6.82-2.13h0a4.79,4.79,0,0,0-2.1,5.55l3.57,11.3,2,11m0,0,4.31,12.54,2.75,6.92m21.17,15.83,1.57,2a20.18,20.18,0,0,0,2.62,2.77l1.69,1.48"/><path class="cls-3" d="M.26,240.44,44.72,213.3A140.05,140.05,0,0,0,73.47,190l21.69-22.92m0,0,12.55,7.45m-12.55-7.45L93,160.4a40.07,40.07,0,0,1-1.93-13.58l.4-12.46A35.37,35.37,0,0,0,90.24,124l-4.69-17.3A6,6,0,0,1,89,99.59h0a6,6,0,0,1,7.79,3l9,19.78m0,0,.93-13a92.69,92.69,0,0,0-2.39-28.55l-2.59-10.64a5.35,5.35,0,0,1,3-6.12h0a5.34,5.34,0,0,1,6.94,2.39l3.55,6.79m-9.42,49.12.21.73a59.46,59.46,0,0,1,2.15,18.48h0m7.06-68.33,1.69,3.25a33.63,33.63,0,0,1,2.8,7.36h0a33.68,33.68,0,0,1,1,8.12v6.47L120.26,111m-5.1-37.71.55-8.83a5,5,0,0,1,3.75-4.52h0a5,5,0,0,1,5.82,2.89l4,9.38m0,0,2.36,17.26v22.74m-2.36-40,.21-1.88a4.81,4.81,0,0,1,5.69-4.2h0a4.82,4.82,0,0,1,3.8,3.7l2.85,13m0,0,2.35,17.26v16.07M141.82,82.8h0a4.14,4.14,0,0,1,5.41,2.39l2.25,6a52,52,0,0,1,3.32,18.3v11.86a70.2,70.2,0,0,0,.81,10.64l.77,5a39.93,39.93,0,0,1,.26,10.07h0a39.65,39.65,0,0,1-7,18.67L142.61,173l-6.67,7.45-18.32,34.61a140.12,140.12,0,0,1-35.8,43.44L49.28,284.75"/><path class="cls-3" d="M129.27,148.68h0a19.77,19.77,0,0,0,6.13-11.56l.15-1"/><circle class="cls-4" cx="229.62" cy="31.36" r="14.66"/><path class="cls-3" d="M222.87,38.41a9.83,9.83,0,0,1,15-12.7"/><circle class="cls-2" cx="237.09" cy="31.98" r="1.52"/><circle class="cls-2" cx="229" cy="38.84" r="1.52"/></g></g></svg>